<svg xmlns="http://www.w3.org/2000/svg" width="1002" height="390" viewBox="0 0 1002 390" font-family="Segoe UI, Helvetica, Arial, sans-serif">
<defs><marker id="arr" markerWidth="9" markerHeight="9" refX="8" refY="3" orient="auto" markerUnits="strokeWidth"><path d="M0,0 L8,3 L0,6 Z" fill="#455A64"/></marker></defs>
<rect width="1002" height="390" fill="#FAFAFA"/>
<text x="501" y="34" text-anchor="middle" font-size="20" font-weight="700" fill="#263238">H2  bid_price (DSP, observables only)</text>
<polyline points="217,84 320,84 320,109 346,109" fill="none" stroke="#455A64" stroke-width="1.5" marker-end="url(#arr)"/>
<polyline points="250,166 320,166 320,109 346,109" fill="none" stroke="#455A64" stroke-width="1.5" marker-end="url(#arr)"/>
<polyline points="185,240 320,240 320,109 346,109" fill="none" stroke="#455A64" stroke-width="1.5" marker-end="url(#arr)"/>
<polyline points="190,306 320,306 320,109 346,109" fill="none" stroke="#455A64" stroke-width="1.5" marker-end="url(#arr)"/>
<polyline points="636,109 706,109 706,191 732,191" fill="none" stroke="#455A64" stroke-width="1.5" marker-end="url(#arr)"/>
<polyline points="555,191 706,191 706,191 732,191" fill="none" stroke="#455A64" stroke-width="1.5" marker-end="url(#arr)"/>
<polyline points="582,273 706,273 706,191 732,191" fill="none" stroke="#455A64" stroke-width="1.5" marker-end="url(#arr)"/>
<rect x="62" y="56" width="155" height="56" rx="9" fill="#FFFFFF" stroke="#607D8B" stroke-width="1.4"/>
<text x="139" y="80" text-anchor="middle" font-size="12.5" font-weight="500" fill="#263238">k_cpa(C2)</text>
<text x="139" y="96" text-anchor="middle" font-size="11.0" font-weight="400" fill="#263238">by advertiser_scale</text>
<rect x="28" y="138" width="222" height="56" rx="9" fill="#FFF9C4" stroke="#FBC02D" stroke-width="1.4"/>
<text x="139" y="162" text-anchor="middle" font-size="12.5" font-weight="500" fill="#263238">v_slot</text>
<text x="139" y="178" text-anchor="middle" font-size="11.0" font-weight="400" fill="#263238">= fmt_wt(B6) × size_wt(B4,B5)</text>
<rect x="93" y="220" width="92" height="40" rx="9" fill="#FFFFFF" stroke="#607D8B" stroke-width="1.4"/>
<text x="139" y="244" text-anchor="middle" font-size="12.5" font-weight="500" fill="#263238">ease(B2)</text>
<rect x="88" y="286" width="102" height="40" rx="9" fill="#FFFFFF" stroke="#607D8B" stroke-width="1.4"/>
<text x="139" y="310" text-anchor="middle" font-size="12.5" font-weight="500" fill="#263238">E[ltv | B2]</text>
<rect x="346" y="81" width="289" height="56" rx="9" fill="#FFF9C4" stroke="#FBC02D" stroke-width="1.4"/>
<text x="491" y="105" text-anchor="middle" font-size="12.5" font-weight="500" fill="#263238">value_estimate</text>
<text x="491" y="121" text-anchor="middle" font-size="11.0" font-weight="400" fill="#263238">= k_cpa · v_slot · ease(B2) · E[ltv|B2]</text>
<rect x="427" y="163" width="128" height="56" rx="9" fill="#ECEFF1" stroke="#90A4AE" stroke-width="1.4"/>
<text x="491" y="187" text-anchor="middle" font-size="12.5" font-weight="500" fill="#263238">shade ≈ 0.7–1.0</text>
<text x="491" y="203" text-anchor="middle" font-size="11.0" font-weight="400" fill="#263238">(config)</text>
<rect x="400" y="245" width="182" height="56" rx="9" fill="#E1BEE7" stroke="#8E24AA" stroke-width="1.4"/>
<text x="491" y="269" text-anchor="middle" font-size="12.5" font-weight="500" fill="#263238">LogNormal(0, σ_explore)</text>
<text x="491" y="285" text-anchor="middle" font-size="11.0" font-weight="400" fill="#263238">exploration draw</text>
<rect x="732" y="163" width="242" height="56" rx="9" fill="#FFCDD2" stroke="#D32F2F" stroke-width="2.6"/>
<text x="853" y="187" text-anchor="middle" font-size="12.5" font-weight="700" fill="#263238">H2 bid_price</text>
<text x="853" y="203" text-anchor="middle" font-size="11.0" font-weight="400" fill="#263238">= value_estimate · shade · noise</text>
<text x="28" y="340" font-size="11" font-weight="700" fill="#546E7A">NODE TYPES</text>
<rect x="28" y="350" width="13" height="13" rx="3" fill="#ECEFF1" stroke="#90A4AE"/>
<text x="46" y="360" font-size="10.5" fill="#37474F">config constant</text>
<rect x="154.0" y="350" width="13" height="13" rx="3" fill="#FFFFFF" stroke="#607D8B"/>
<text x="172.0" y="360" font-size="10.5" fill="#37474F">visible / prior column</text>
<rect x="322.0" y="350" width="13" height="13" rx="3" fill="#E1BEE7" stroke="#8E24AA"/>
<text x="340.0" y="360" font-size="10.5" fill="#37474F">random draw</text>
<rect x="424.0" y="350" width="13" height="13" rx="3" fill="#FFF9C4" stroke="#FBC02D"/>
<text x="442.0" y="360" font-size="10.5" fill="#37474F">intermediate op</text>
<rect x="550.0" y="350" width="13" height="13" rx="3" fill="#FFCDD2" stroke="#D32F2F"/>
<text x="568.0" y="360" font-size="10.5" fill="#37474F">OUTPUT</text>
</svg>